<?xml version="1.0" encoding="UTF-8"?>
<svg id="Layer_1" xmlns="http://www.w3.org/2000/svg" version="1.1" viewBox="0 0 150 150">
  <defs>
    <style>
      .st0 { fill: #d32f2f; }
      .st3, .st4 { fill: #64b5f6; }
      .st4, .st5 {
        stroke: #4e342e;
        stroke-width: 1.5px;
      }
      .st6 { fill: #e53935; }
      .st8 {
        stroke: #64b5f6;
        stroke-linecap: round;
        stroke-width: 4px;
        fill: none;
      }
      .st5 { fill: none; }
      .st9 { fill: #81c784; }
      .st10 { fill: #ffa726; }
      .st11 { fill: #b71c1c; }
      .st12 { fill: #4e342e; }
      .st13 { fill: #8d6e63; }
      .st14 { fill: #e8e8e8; }
    </style>
  </defs>
  
  <!-- House icon centered and scaled -->
  <g transform="translate(-50, -80) scale(0.65)">
    <rect class="st11" x="175" y="100" width="12" height="35"/>
    <polygon class="st6" points="150 130 80 180 220 180 150 130"/>
    <polygon class="st0" points="150 130 220 180 230 175 160 125 150 130"/>
    <rect class="st14" x="100" y="180" width="100" height="80"/>
    <rect class="st13" x="135" y="210" width="30" height="50" rx="2" ry="2"/>
    <circle class="st12" cx="158" cy="235" r="2"/>
    <rect class="st4" x="110" y="195" width="18" height="18"/>
    <line class="st5" x1="119" y1="195" x2="119" y2="213"/>
    <line class="st5" x1="110" y1="204" x2="128" y2="204"/>
    <rect class="st4" x="172" y="195" width="18" height="18"/>
    <line class="st5" x1="181" y1="195" x2="181" y2="213"/>
    <line class="st5" x1="172" y1="204" x2="190" y2="204"/>
    <circle class="st9" cx="95" cy="255" r="10"/>
    <circle class="st9" cx="102" cy="252" r="8"/>
    <circle class="st9" cx="90" cy="250" r="7"/>
    <circle class="st10" cx="92" cy="258" r="2"/>
    <circle class="st10" cx="98" cy="260" r="2"/>
    <circle class="st10" cx="95" cy="256" r="2"/>
    <circle class="st9" cx="205" cy="255" r="10"/>
    <circle class="st9" cx="198" cy="252" r="8"/>
    <circle class="st9" cx="210" cy="250" r="7"/>
    <circle class="st10" cx="202" cy="258" r="2"/>
    <circle class="st10" cx="208" cy="260" r="2"/>
    <circle class="st10" cx="205" cy="256" r="2"/>
    <g>
      <line class="st8" x1="210" y1="155" x2="210" y2="115"/>
      <polygon class="st3" points="202 123 210 115 218 123 202 123"/>
    </g>
  </g>
</svg>
